<svg width="100%" height="100%" viewBox="0 0 447 619" fill="none" xmlns="http://www.w3.org/2000/svg">
    <g opacity="0.1">
        <path
            d="M131.152 406.4L154.005 464.773L125.131 509.736L73.4042 496.327L50.5521 437.954L79.4262 392.991L131.152 406.4Z"
            fill="url(#paint0_linear_1_1549)" />
        <path
            d="M402.451 288.818L416.207 323.957L398.825 351.024L367.687 342.952L353.931 307.813L371.312 280.746L402.451 288.818Z"
            fill="url(#paint1_linear_1_1549)" />
        <path d="M154.003 464.777L416.205 323.958L402.449 288.822L131.155 406.394L154.003 464.777Z"
            fill="url(#paint2_linear_1_1549)" />
        <path d="M79.4275 392.991L371.316 280.747L402.448 288.822L131.154 406.394L79.4275 392.991Z"
            fill="url(#paint3_linear_1_1549)" />
        <path d="M131.156 406.393L50.553 437.956L79.4296 392.99L131.156 406.393Z"
            fill="url(#paint4_linear_1_1549)" />
        <path d="M154.003 464.776L416.206 323.957L398.828 351.025L125.13 509.735L154.003 464.776Z"
            fill="url(#paint5_linear_1_1549)" />
    </g>
    <circle cx="146" cy="178" r="186" fill="url(#paint6_radial_1_1549)" fill-opacity="0.6" />
    <g filter="url(#filter0_d_1_1549)">
        <ellipse cx="184.259" cy="219.724" rx="111.442" ry="69.8154"
            fill="url(#paint7_linear_1_1549)" fill-opacity="0.5" />
        <path
            d="M295.231 219.724C295.231 238.783 282.898 256.108 262.811 268.693C242.73 281.273 214.959 289.069 184.259 289.069C153.56 289.069 125.789 281.273 105.708 268.693C85.62 256.108 73.2877 238.783 73.2877 219.724C73.2877 200.666 85.62 183.341 105.708 170.756C125.789 158.176 153.56 150.38 184.259 150.38C214.959 150.38 242.73 158.176 262.811 170.756C282.898 183.341 295.231 200.666 295.231 219.724Z"
            stroke="url(#paint8_linear_1_1549)" stroke-opacity="0.6" stroke-width="0.941174"
         />
    </g>
    <circle cx="184.258" cy="154.625" r="141.382" fill="url(#paint9_radial_1_1549)" />
    <ellipse cx="184.257" cy="178" rx="138.225" ry="80.864" fill="url(#paint10_linear_1_1549)"
        fill-opacity="0.5" />
    <path
        d="M322.011 178C322.011 200.094 306.7 220.183 281.759 234.774C256.829 249.358 222.358 258.394 184.257 258.394C146.156 258.394 111.685 249.358 86.7552 234.774C61.8141 220.183 46.5031 200.094 46.5031 178C46.5031 155.907 61.8141 135.818 86.7552 121.227C111.685 106.643 146.156 97.6069 184.257 97.6069C222.358 97.6069 256.829 106.643 281.759 121.227C306.7 135.818 322.011 155.907 322.011 178Z"
        stroke="url(#paint11_linear_1_1549)" stroke-opacity="0.6" stroke-width="0.941174" />
    <circle cx="184.257" cy="154.624" r="104.724" fill="url(#paint12_radial_1_1549)" />
    <circle cx="184.257" cy="154.624" r="104.724" fill="url(#paint13_radial_1_1549)" />
    <g filter="url(#filter1_d_1_1549)">
        <ellipse cx="184.258" cy="127.797" rx="136.819" ry="78.994"
            fill="url(#paint14_linear_1_1549)" fill-opacity="0.5" />
        <path
            d="M320.606 127.797C320.606 149.371 305.456 168.992 280.768 183.246C256.092 197.493 221.972 206.32 184.258 206.32C146.544 206.32 112.424 197.493 87.7478 183.246C63.0596 168.992 47.9098 149.371 47.9098 127.797C47.9098 106.222 63.0596 86.601 87.7478 72.347C112.424 58.1001 146.544 49.2732 184.258 49.2732C221.972 49.2732 256.092 58.1001 280.768 72.347C305.456 86.601 320.606 106.222 320.606 127.797Z"
            stroke="url(#paint15_linear_1_1549)" stroke-opacity="0.6" stroke-width="0.941174"
         />
    </g>
    <g filter="url(#filter2_d_1_1549)">
        <ellipse cx="184.257" cy="87.0055" rx="106.167" ry="68.6237"
            fill="url(#paint16_linear_1_1549)" fill-opacity="0.5" />
        <path
            d="M289.954 87.0055C289.954 105.742 278.204 122.769 259.073 135.135C239.948 147.497 213.497 155.159 184.257 155.159C155.017 155.159 128.567 147.497 109.441 135.135C90.3104 122.769 78.5604 105.742 78.5604 87.0055C78.5604 68.2688 90.3104 51.2419 109.441 38.8764C128.567 26.514 155.017 18.8524 184.257 18.8524C213.497 18.8524 239.948 26.514 259.073 38.8764C278.204 51.2419 289.954 68.2688 289.954 87.0055Z"
            stroke="url(#paint17_linear_1_1549)" stroke-opacity="0.6" stroke-width="0.941174"
         />
    </g>
    <ellipse cx="184.259" cy="63.1704" rx="66.0812" ry="44.7886" fill="url(#paint18_linear_1_1549)"
        fill-opacity="0.5" />
    <path
        d="M249.87 63.1704C249.87 75.3357 242.595 86.4037 230.722 94.4511C218.851 102.497 202.426 107.488 184.259 107.488C166.093 107.488 149.667 102.497 137.797 94.4511C125.924 86.4037 118.649 75.3357 118.649 63.1704C118.649 51.005 125.924 39.937 137.797 31.8896C149.667 23.8439 166.093 18.8524 184.259 18.8524C202.426 18.8524 218.851 23.8439 230.722 31.8896C242.595 39.937 249.87 51.005 249.87 63.1704Z"
        stroke="url(#paint19_linear_1_1549)" stroke-opacity="0.6" stroke-width="0.941174" />
    <ellipse cx="184.258" cy="47.8806" rx="38.2578" ry="26.3238" fill="url(#paint20_linear_1_1549)"
        fill-opacity="0.5" />
    <path
        d="M222.045 47.8806C222.045 54.9503 217.881 61.4021 211.044 66.1066C204.208 70.8097 194.74 73.7338 184.258 73.7338C173.776 73.7338 164.308 70.8097 157.472 66.1066C150.635 61.4021 146.471 54.9503 146.471 47.8806C146.471 40.8109 150.635 34.359 157.472 29.6545C164.308 24.9514 173.776 22.0273 184.258 22.0273C194.74 22.0273 204.208 24.9514 211.044 29.6545C217.881 34.359 222.045 40.8109 222.045 47.8806Z"
        stroke="url(#paint21_linear_1_1549)" stroke-opacity="0.6" stroke-width="0.941174" />
    <circle cx="184.258" cy="154.624" r="141.382" fill="url(#paint22_radial_1_1549)"
        fill-opacity="0.3" />
    <defs>
        <filter id="filter0_d_1_1549" x="63.4054" y="141.438" width="241.708" height="158.454"
            filterUnits="userSpaceOnUse" color-interpolation-filters="sRGB">
            <feFlood flood-opacity="0" result="BackgroundImageFix" />
            <feColorMatrix in="SourceAlpha" type="matrix"
                values="0 0 0 0 0 0 0 0 0 0 0 0 0 0 0 0 0 0 127 0" result="hardAlpha" />
            <feOffset dy="0.941174" />
            <feGaussianBlur stdDeviation="4.70587" />
            <feComposite in2="hardAlpha" operator="out" />
            <feColorMatrix type="matrix"
                values="0 0 0 0 0.440043 0 0 0 0 0.20092 0 0 0 0 0.679167 0 0 0 0.3 0" />
            <feBlend mode="normal" in2="BackgroundImageFix" result="effect1_dropShadow_1_1549" />
            <feBlend mode="normal" in="SourceGraphic" in2="effect1_dropShadow_1_1549" result="shape" />
        </filter>
        <filter id="filter1_d_1_1549" x="42.7333" y="45.0379" width="283.049" height="167.4"
            filterUnits="userSpaceOnUse" color-interpolation-filters="sRGB">
            <feFlood flood-opacity="0" result="BackgroundImageFix" />
            <feColorMatrix in="SourceAlpha" type="matrix"
                values="0 0 0 0 0 0 0 0 0 0 0 0 0 0 0 0 0 0 127 0" result="hardAlpha" />
            <feOffset dy="0.941174" />
            <feGaussianBlur stdDeviation="2.35293" />
            <feComposite in2="hardAlpha" operator="out" />
            <feColorMatrix type="matrix"
                values="0 0 0 0 0.369333 0 0 0 0 0.0916667 0 0 0 0 0.5 0 0 0 0.15 0" />
            <feBlend mode="normal" in2="BackgroundImageFix" result="effect1_dropShadow_1_1549" />
            <feBlend mode="normal" in="SourceGraphic" in2="effect1_dropShadow_1_1549" result="shape" />
        </filter>
        <filter id="filter2_d_1_1549" x="71.9722" y="12.2641" width="226.452" height="151.365"
            filterUnits="userSpaceOnUse" color-interpolation-filters="sRGB">
            <feFlood flood-opacity="0" result="BackgroundImageFix" />
            <feColorMatrix in="SourceAlpha" type="matrix"
                values="0 0 0 0 0 0 0 0 0 0 0 0 0 0 0 0 0 0 127 0" result="hardAlpha" />
            <feOffset dx="0.941174" dy="0.941174" />
            <feGaussianBlur stdDeviation="3.5294" />
            <feComposite in2="hardAlpha" operator="out" />
            <feColorMatrix type="matrix"
                values="0 0 0 0 0.440043 0 0 0 0 0.20092 0 0 0 0 0.679167 0 0 0 0.2 0" />
            <feBlend mode="normal" in2="BackgroundImageFix" result="effect1_dropShadow_1_1549" />
            <feBlend mode="normal" in="SourceGraphic" in2="effect1_dropShadow_1_1549" result="shape" />
        </filter>
        <linearGradient id="paint0_linear_1_1549" x1="103.957" y1="514.408" x2="117.963" y2="399.1"
            gradientUnits="userSpaceOnUse">
            <stop stop-color="white" />
            <stop offset="0.509629" stop-color="#FF96DB" />
            <stop offset="1" stop-color="#4AC9FF" />
        </linearGradient>
        <linearGradient id="paint1_linear_1_1549" x1="398.825" y1="351.024" x2="371.312"
            y2="280.746" gradientUnits="userSpaceOnUse">
            <stop stop-color="#8DEBFF" />
            <stop offset="1" stop-color="#5484FF" />
        </linearGradient>
        <linearGradient id="paint2_linear_1_1549" x1="377.344" y1="208.071" x2="145.456" y2="439.34"
            gradientUnits="userSpaceOnUse">
            <stop offset="0.09375" stop-color="#2FB4FF" />
            <stop offset="0.484375" stop-color="#181EAD" stop-opacity="0.4" />
            <stop offset="0.998998" stop-color="#40F4FF" />
        </linearGradient>
        <linearGradient id="paint3_linear_1_1549" x1="405.778" y1="284.654" x2="79.4275"
            y2="392.991" gradientUnits="userSpaceOnUse">
            <stop stop-color="#2FB4FF" />
            <stop offset="0.163279" stop-color="#1C348A" stop-opacity="0.8" />
            <stop offset="0.614583" stop-color="#2D18AD" stop-opacity="0.6" />
            <stop offset="1" stop-color="#40F4FF" />
        </linearGradient>
        <linearGradient id="paint4_linear_1_1549" x1="53.4663" y1="425.49" x2="131.156" y2="406.393"
            gradientUnits="userSpaceOnUse">
            <stop stop-color="white" />
            <stop offset="1" stop-color="#8AEAFF" stop-opacity="0" />
        </linearGradient>
        <linearGradient id="paint5_linear_1_1549" x1="377.345" y1="208.07" x2="94.4013" y2="485.187"
            gradientUnits="userSpaceOnUse">
            <stop stop-color="#124593" stop-opacity="0.7" />
            <stop offset="0.693735" stop-color="#1C348A" stop-opacity="0.5" />
            <stop offset="0.880208" stop-color="#40F4FF" />
            <stop offset="1" stop-color="white" />
        </linearGradient>
        <radialGradient id="paint6_radial_1_1549" cx="0" cy="0" r="1" gradientUnits="userSpaceOnUse"
            gradientTransform="translate(146 178) rotate(90) scale(186)">
            <stop stop-color="#FF65C1" />
            <stop offset="1" stop-color="#FF65C1" stop-opacity="0" />
        </radialGradient>
        <linearGradient id="paint7_linear_1_1549" x1="184.259" y1="149.909" x2="184.259" y2="289.54"
            gradientUnits="userSpaceOnUse">
            <stop stop-color="#13154D" />
            <stop offset="1" stop-color="#8E92EE" stop-opacity="0" />
        </linearGradient>
        <linearGradient id="paint8_linear_1_1549" x1="239.608" y1="228.526" x2="245.916"
            y2="298.959" gradientUnits="userSpaceOnUse">
            <stop stop-color="white" stop-opacity="0" />
            <stop offset="1" stop-color="white" />
        </linearGradient>
        <radialGradient id="paint9_radial_1_1549" cx="0" cy="0" r="1" gradientUnits="userSpaceOnUse"
            gradientTransform="translate(42.8759 206.056) rotate(-19.6638) scale(300.275)">
            <stop offset="0.249306" stop-color="white" />
            <stop offset="0.48315" stop-color="#FF8FED" stop-opacity="0.5" />
            <stop offset="0.627037" stop-color="#220C7A" stop-opacity="0.5" />
        </radialGradient>
        <linearGradient id="paint10_linear_1_1549" x1="57.3124" y1="195.186" x2="319.299"
            y2="165.616" gradientUnits="userSpaceOnUse">
            <stop stop-color="white" />
            <stop offset="1" stop-color="#12178E" stop-opacity="0.4" />
        </linearGradient>
        <linearGradient id="paint11_linear_1_1549" x1="206.204" y1="293.135" x2="164.381"
            y2="193.358" gradientUnits="userSpaceOnUse">
            <stop offset="0.0011346" stop-color="white" />
            <stop offset="1" stop-color="white" stop-opacity="0" />
        </linearGradient>
        <radialGradient id="paint12_radial_1_1549" cx="0" cy="0" r="1"
            gradientUnits="userSpaceOnUse"
            gradientTransform="translate(105.049 207.803) rotate(-14.8494) scale(207.504)">
            <stop offset="0.239373" stop-color="white" />
            <stop offset="0.410099" stop-color="#FFCEF1" />
            <stop offset="0.67492" stop-color="#B6B9FF" />
            <stop offset="0.861176" stop-color="#FFA8E7" />
            <stop offset="1" stop-color="white" />
        </radialGradient>
        <radialGradient id="paint13_radial_1_1549" cx="0" cy="0" r="1"
            gradientUnits="userSpaceOnUse"
            gradientTransform="translate(283.472 235.571) rotate(-121.724) scale(119.316)">
            <stop stop-color="#3F52FF" />
            <stop offset="1" stop-color="#3F52FF" stop-opacity="0" />
        </radialGradient>
        <linearGradient id="paint14_linear_1_1549" x1="50.3855" y1="122.352" x2="321.076"
            y2="130.762" gradientUnits="userSpaceOnUse">
            <stop stop-color="white" />
            <stop offset="1" stop-color="#5653FF" stop-opacity="0.2" />
        </linearGradient>
        <linearGradient id="paint15_linear_1_1549" x1="166.241" y1="262.563" x2="157.734"
            y2="133.709" gradientUnits="userSpaceOnUse">
            <stop stop-color="white" />
            <stop offset="1" stop-color="white" stop-opacity="0" />
        </linearGradient>
        <linearGradient id="paint16_linear_1_1549" x1="184.257" y1="18.3818" x2="184.257"
            y2="155.629" gradientUnits="userSpaceOnUse">
            <stop stop-color="#13154D" stop-opacity="0.5" />
            <stop offset="1" stop-color="#8E92EE" stop-opacity="0" />
        </linearGradient>
        <linearGradient id="paint17_linear_1_1549" x1="202.813" y1="185.426" x2="216.895"
            y2="33.6598" gradientUnits="userSpaceOnUse">
            <stop stop-color="white" />
            <stop offset="1" stop-color="white" stop-opacity="0" />
        </linearGradient>
        <linearGradient id="paint18_linear_1_1549" x1="184.259" y1="18.3818" x2="184.259"
            y2="107.959" gradientUnits="userSpaceOnUse">
            <stop stop-color="#13154D" />
            <stop offset="1" stop-color="#8E92EE" stop-opacity="0" />
        </linearGradient>
        <linearGradient id="paint19_linear_1_1549" x1="210.699" y1="173.863" x2="184.259"
            y2="18.3818" gradientUnits="userSpaceOnUse">
            <stop stop-color="white" />
            <stop offset="1" stop-color="white" stop-opacity="0" />
        </linearGradient>
        <linearGradient id="paint20_linear_1_1549" x1="184.258" y1="21.5568" x2="184.258"
            y2="74.2044" gradientUnits="userSpaceOnUse">
            <stop stop-color="#13154D" />
            <stop offset="1" stop-color="#8E92EE" stop-opacity="0" />
        </linearGradient>
        <linearGradient id="paint21_linear_1_1549" x1="204.916" y1="129.711" x2="184.258"
            y2="21.5568" gradientUnits="userSpaceOnUse">
            <stop stop-color="white" />
            <stop offset="1" stop-color="white" stop-opacity="0" />
        </linearGradient>
        <radialGradient id="paint22_radial_1_1549" cx="0" cy="0" r="1"
            gradientUnits="userSpaceOnUse"
            gradientTransform="translate(42.8759 206.055) rotate(-19.6638) scale(300.275)">
            <stop offset="0.249306" stop-color="white" />
            <stop offset="0.48315" stop-color="#FF8FED" stop-opacity="0.5" />
            <stop offset="0.627037" stop-color="#220C7A" stop-opacity="0" />
        </radialGradient>
    </defs>
</svg>