<svg width="899" height="564" viewBox="0 0 899 564" fill="none" xmlns="http://www.w3.org/2000/svg">
    <g clip-path="url(#clip0_2_591)">
        <path d="M244.42 310.27L242.24 553.87" stroke="black" stroke-width="1.16"
            stroke-miterlimit="10" />
        <path
            d="M243.16 278.55C243.16 278.55 265.81 289.64 264.31 290.09C262.18 290.86 254.48 287.65 254.48 287.65C254.48 287.65 251.09 290.89 249.34 290.47C247.142 289.963 245.015 289.183 243.01 288.15"
            stroke="black" stroke-width="1.56" stroke-miterlimit="10" />
        <path
            d="M236.12 285.61C236.12 285.61 256.56 294.86 255.06 295.31C252.93 296.08 245.23 292.86 245.23 292.86C245.23 292.86 241.84 296.1 240.09 295.68C237.892 295.173 235.765 294.393 233.76 293.36"
            stroke="black" stroke-width="1.56" stroke-miterlimit="10" />
        <path d="M298.47 295.08H237.18V298.59H298.47V295.08Z" fill="black" />
        <path d="M294.6 295.17L315.24 248.52L317.66 249.33L298.01 295.08L294.6 295.17Z"
            stroke="black" stroke-miterlimit="10" />
        <path
            d="M60.0502 360.07L47.9403 261.07C47.7097 258.415 48.1784 255.747 49.3002 253.33C49.6164 252.625 50.0305 251.969 50.5301 251.38C51.9554 249.777 53.713 248.504 55.6803 247.65L83.5301 230.29"
            stroke="black" stroke-width="1.16" stroke-miterlimit="10" />
        <path
            d="M81.1101 188.88C76.8401 201.49 85.8902 204.46 85.8902 204.46L86.3801 224.76C86.4082 226.001 86.0589 227.223 85.3787 228.262C84.6985 229.301 83.7192 230.109 82.5701 230.58"
            stroke="black" stroke-width="1.16" stroke-miterlimit="10" />
        <path
            d="M92.47 216.2L106.05 221.8C107.106 222.233 108.278 222.298 109.375 221.984C110.473 221.671 111.433 220.996 112.1 220.07L116.84 213.46C118.906 210.592 120.163 207.221 120.48 203.7V203.7C120.48 203.7 122.15 192.31 122.84 183.7"
            stroke="black" stroke-width="1.16" stroke-miterlimit="10" />
        <path
            d="M113.45 218.89C113.38 221.79 114.21 223.13 116.12 225.29C118.03 227.45 120.76 229.49 123.64 229.77"
            stroke="black" stroke-width="1.16" stroke-miterlimit="10" />
        <path d="M83.5901 230.25C104.48 249.82 121.68 232.25 124.03 229.53" stroke="black"
            stroke-width="1.16" stroke-miterlimit="10" />
        <path d="M111.01 190.05C116.37 189.21 118.11 190.89 118.11 190.89" stroke="black"
            stroke-width="0.58" stroke-miterlimit="10" />
        <path
            d="M123.3 229.76C102.65 249.46 85.3 231.04 85.3 231.04C100.15 240.23 115.52 231.04 117.13 226.55L123.3 229.76Z"
            fill="black" />
        <path
            d="M126.15 236.71C123.262 239.511 119.891 241.767 116.2 243.37C112.473 244.909 108.421 245.497 104.41 245.08C100.447 244.596 96.608 243.378 93.0901 241.49L90.49 240.05L88.01 238.4C87.1764 237.861 86.3751 237.273 85.6101 236.64L83.27 234.81L85.6501 236.59C86.4284 237.204 87.2396 237.775 88.0801 238.3L90.5801 239.89L93.2102 241.27C96.7192 243.07 100.536 244.193 104.46 244.58C108.372 244.908 112.304 244.255 115.9 242.68C119.462 241.047 122.698 238.78 125.45 235.99L126.15 236.71Z"
            fill="#231F20" />
        <path d="M405.5 300.83L218.65 298.44L218.5 310.02L405.36 312.41" stroke="black"
            stroke-width="1.16" stroke-miterlimit="10" />
        <path
            d="M59.3901 360C75.5201 356.05 212.96 325 212.96 325C218.4 323.94 340.09 465 340.09 465L328.09 465.73L199.27 374.2C149.53 409.42 75.8401 420.86 59.3901 360Z"
            fill="black" />
        <path
            d="M114.47 552.87C137.32 553.16 157 557.37 165.22 563.1L63.48 561.79C71.85 556.28 91.59 552.58 114.47 552.87Z"
            stroke="black" stroke-width="1.56" stroke-miterlimit="10" />
        <path d="M114.47 552.87L110.47 413.45" stroke="black" stroke-width="1.56"
            stroke-miterlimit="10" />
        <path
            d="M229.74 561.82L227.64 553.68L244.4 553.9C250.46 553.98 256.4 555.9 261.99 558.64C262.292 558.782 262.537 559.023 262.684 559.322C262.831 559.622 262.871 559.962 262.799 560.288C262.727 560.613 262.546 560.905 262.287 561.114C262.027 561.324 261.704 561.439 261.37 561.44L229.74 561.82Z"
            stroke="black" stroke-miterlimit="10" />
        <path
            d="M329.53 473.16L327.43 465.03L344.18 465.24C350.25 465.32 356.18 467.24 361.78 469.99C362.077 470.135 362.316 470.377 362.459 470.675C362.602 470.973 362.64 471.311 362.567 471.634C362.495 471.957 362.315 472.245 362.058 472.453C361.801 472.661 361.481 472.776 361.15 472.78L329.53 473.16Z"
            stroke="black" stroke-miterlimit="10" />
        <path d="M175.1 375.03L227.58 553.55L242.29 554.56L213.17 325.19L59.3899 360L175.1 375.03Z"
            fill="black" />
        <path
            d="M53.9966 412.16L159.098 413.499C162.655 413.544 165.574 410.7 165.62 407.147C165.665 403.593 162.819 400.675 159.262 400.63L54.1606 399.291C50.6041 399.246 47.6845 402.09 47.6392 405.643C47.5939 409.197 50.4402 412.115 53.9966 412.16Z"
            stroke="black" stroke-miterlimit="10" />
        <path
            d="M123.3 229.76L138.02 232.82C140.999 233.439 143.713 234.963 145.792 237.185C147.87 239.407 149.211 242.217 149.63 245.23L155.9 292.56"
            stroke="black" stroke-width="1.16" stroke-miterlimit="10" />
        <path
            d="M78.97 261.47L99.29 300.65L223.74 283.56L225.35 295.9L86.73 328.11C84.0001 328.75 81.1341 328.443 78.6013 327.24C76.0686 326.038 74.0194 324.01 72.79 321.49L49.5901 274.86"
            stroke="black" stroke-width="1.16" stroke-miterlimit="10" />
        <path d="M153.61 277.78L242.87 278.37L243.57 288.91" stroke="black" stroke-width="1.16"
            stroke-miterlimit="10" />
        <path d="M3.95996 563H898.29" stroke="black" stroke-width="1.56" stroke-miterlimit="10" />
        <path
            d="M223.89 283.77C224.24 283.7 236.08 285.18 236.08 285.18L234.08 293.87L225.16 295.29"
            stroke="black" stroke-width="1.16" stroke-miterlimit="10" />
        <path d="M157.21 311.24L159.83 337.78" stroke="black" stroke-width="1.16"
            stroke-miterlimit="10" />
        <path
            d="M51.3501 279.36L71.29 331.08C72.3687 333.874 74.4779 336.148 77.1829 337.433C79.8878 338.719 82.9826 338.918 85.8301 337.99L157.42 312.43L156.6 311.9L85.76 328.55C83.4047 329.104 80.9314 328.847 78.7407 327.819C76.55 326.792 74.7704 325.055 73.6902 322.89L51.3501 279.36Z"
            fill="black" />
        <path d="M161.56 292.13L156.39 278.24L153.95 278.31L155.72 293.14L161.56 292.13Z"
            fill="black" />
        <path
            d="M121.46 180.94C122.46 182.94 122.54 187.1 122.11 191.5C121.68 195.9 119.82 207.26 118.54 210.62C117.26 213.98 112.1 220.07 112.1 220.07C110.9 234.37 114.56 292.56 144.68 283.34C164.26 277.34 139.26 242.66 128.41 222.18C117.56 201.7 140.12 188.45 122.84 167.25C120.36 164.25 107.2 156.35 93.1302 162.25C69.8302 171.94 74.8202 216.03 85.3802 228.3C85.3802 228.3 86.2402 226.24 86.1202 214.3C86.0002 202.36 84.5802 204.69 81.1202 200.23C77.6602 195.77 80.2302 189.92 83.1202 188.09C86.0102 186.26 94.1201 181.35 94.3001 175.55C94.3001 175.55 104.21 182.18 111.93 182.85C119.65 183.52 121.46 180.94 121.46 180.94Z"
            fill="black" />
        <path
            d="M82.8301 187.36C83.4101 189.24 84.5 193.65 85.03 195.85C85.03 195.882 85.0427 195.912 85.0652 195.935C85.0877 195.957 85.1183 195.97 85.1501 195.97C85.182 195.97 85.2124 195.957 85.2349 195.935C85.2574 195.912 85.27 195.882 85.27 195.85C85.18 193.1 85.3701 186.8 88.5701 183.75C92.7201 179.75 83.27 182.36 83.27 182.36L82.8301 187.36Z"
            fill="black" />
        <path
            d="M122.93 190.14C126.23 190.53 128.76 191.94 128.37 195.24C128.179 196.374 127.667 197.429 126.894 198.28C126.121 199.131 125.119 199.742 124.009 200.04C122.899 200.338 121.726 200.311 120.63 199.962C119.535 199.612 118.563 198.956 117.83 198.07C116.847 196.884 116.354 195.367 116.45 193.83C116.85 190.53 119.65 189.75 122.93 190.14Z"
            fill="white" stroke="black" stroke-width="0.87" stroke-miterlimit="10" />
        <path d="M100.01 191.88L82.6201 190.47L82.1401 188.97L100.83 189.51" fill="white" />
        <path d="M100.01 191.88L82.6201 190.47L82.1401 188.97L100.83 189.51" stroke="black"
            stroke-width="0.58" stroke-miterlimit="10" />
        <path
            d="M106.5 188.19C109.79 188.58 112.33 190 111.94 193.3C111.705 194.838 110.882 196.225 109.643 197.168C108.405 198.111 106.849 198.535 105.303 198.352C103.758 198.169 102.344 197.393 101.36 196.187C100.376 194.982 99.8993 193.441 100.03 191.89C100.42 188.58 103.2 187.8 106.5 188.19Z"
            stroke="black" stroke-width="0.87" stroke-miterlimit="10" />
        <path
            d="M434.34 558.63V81.9301C434.337 60.3475 425.763 39.6497 410.501 24.3885C395.24 9.12741 374.543 0.552578 352.96 0.549927H264.41"
            stroke="black" stroke-miterlimit="10" />
        <path
            d="M177.93 24.3601H364.18L300.5 4.75999C279.335 -1.75852 256.667 -1.54176 235.63 5.38011L177.93 24.3601Z"
            fill="black" />
        <path d="M734.01 149.97C549.2 322.97 94.49 -89.21 0.47998 210.19" stroke="black"
            stroke-miterlimit="10" />
    </g>
    <defs>
        <clipPath id="clip0_2_591">
            <rect width="898.29" height="563.91" fill="white" />
        </clipPath>
    </defs>
</svg>